# This file uses centimeters as units for non-parametric coordinates.

mtllib aletaPequena.mtl
g default
v -0.972634 99.363658 47.275243
v -1.037540 99.346446 47.238775
v -0.970259 99.321375 47.275015
v -0.974055 99.189097 47.269117
v -1.040435 99.220568 47.224394
v -0.986854 99.144763 47.260236
v -0.772851 99.404109 47.372457
v -0.824480 99.508967 47.351827
v -0.826529 99.059382 47.336729
v -0.907938 98.997508 47.294317
v -0.746282 99.288554 47.381376
v -0.774035 99.145709 47.364591
v -0.701233 98.944323 47.392553
v -0.820729 98.871127 47.333540
v -0.723349 98.759097 47.377363
v -0.611759 98.856242 47.430563
v -0.586830 99.089099 47.447942
v -0.470204 99.041766 47.498922
v -0.544247 99.278361 47.472067
v -0.391814 99.277590 47.540334
v -0.588671 99.498728 47.458044
v -0.687407 99.598376 47.416471
v -0.463900 99.545916 47.515196
v -0.545421 99.650302 47.481458
v -0.580010 99.657107 47.466146
v -1.037333 99.351565 47.138647
v -1.037540 99.346446 47.238775
v -0.972634 99.363658 47.275243
v -0.949619 99.373309 47.202856
v -1.033934 99.226664 47.131124
v -0.970798 99.139773 47.189924
v -0.986854 99.144763 47.260236
v -1.040435 99.220568 47.224394
v -0.824480 99.508967 47.351827
v -0.811406 99.512827 47.284811
v -0.786642 99.426142 47.295309
v -0.886838 99.000979 47.227194
v -0.907938 98.997508 47.294317
v -0.828773 99.055506 47.262434
v -0.953192 99.313998 47.198888
v -0.956350 99.221423 47.194677
v -0.777096 99.141940 47.293699
v -0.755663 99.290377 47.308347
v -0.687407 99.598376 47.416471
v -0.670403 99.599833 47.360525
v -0.580010 99.657107 47.466146
v -0.571375 99.661883 47.411222
v -0.570262 99.509463 47.408697
v -0.561327 99.281703 47.408552
v -0.383387 99.279360 47.497350
v -0.454235 99.549372 47.467443
v -0.607601 99.088076 47.381529
v -0.462187 99.036089 47.453085
v -0.802080 98.876093 47.272550
v -0.820729 98.871127 47.333540
v -0.710866 98.762415 47.320890
v -0.723349 98.759097 47.377363
v -0.718037 98.957194 47.320921
v -0.601619 98.855494 47.379781
v -0.532223 99.651782 47.430570
v -0.545421 99.650302 47.481458
v -0.588671 99.498728 47.458044
v -0.463900 99.545916 47.515196
v -0.611759 98.856242 47.430563
v -0.470204 99.041766 47.498922
v -0.391814 99.277590 47.540334
vt 0.829611 0.110415
vt 0.821279 0.121180
vt 0.822571 0.106954
vt 0.801724 0.099969
vt 0.800572 0.117575
vt 0.792301 0.100484
vt 0.848673 0.078374
vt 0.861919 0.093395
vt 0.791582 0.067836
vt 0.775890 0.078047
vt 0.832484 0.067358
vt 0.808521 0.063938
vt 0.781877 0.040186
vt 0.762293 0.056092
vt 0.751475 0.033299
vt 0.773913 0.019993
vt 0.811878 0.029159
vt 0.812036 0.006704
vt 0.843970 0.032752
vt 0.853751 0.006744
vt 0.875313 0.052669
vt 0.884706 0.075259
vt 0.891018 0.033865
vt 0.902275 0.054385
vt 0.901135 0.060648
vt 0.695426 0.012596
vt 0.705878 0.011668
vt 0.710743 0.021220
vt 0.702046 0.027441
vt 0.677864 0.011830
vt 0.670715 0.028905
vt 0.660740 0.023881
vt 0.667399 0.010373
vt 0.732727 0.042870
vt 0.724835 0.048131
vt 0.713342 0.054069
vt 0.648550 0.045385
vt 0.641802 0.038641
vt 0.658282 0.053271
vt 0.692838 0.027920
vt 0.678841 0.029028
vt 0.672281 0.059933
vt 0.694361 0.060994
vt 0.748698 0.061117
vt 0.741715 0.067150
vt 0.763213 0.075126
vt 0.755320 0.076663
vt 0.733956 0.089115
vt 0.697837 0.092677
vt 0.698527 0.122379
vt 0.734100 0.109214
vt 0.668313 0.088441
vt 0.663224 0.112748
vt 0.632558 0.060493
vt 0.624535 0.055505
vt 0.621174 0.077352
vt 0.612986 0.079681
vt 0.647000 0.072945
vt 0.634340 0.094004
vt 0.756426 0.081809
vt 0.761322 0.086773
vt 0.741910 0.095159
vt 0.738509 0.115205
vt 0.630648 0.100626
vt 0.662157 0.119594
vt 0.698824 0.128800
vn -0.451911 -0.031101 0.891521
vn -0.509530 -0.041502 0.859451
vn -0.456609 -0.028301 0.889217
vn -0.492715 -0.031301 0.869627
vn -0.578147 -0.063405 0.813466
vn -0.484827 -0.031302 0.874050
vn -0.492715 -0.031301 0.869627
vn -0.456609 -0.028301 0.889217
vn -0.509530 -0.041502 0.859451
vn -0.509530 -0.041502 0.859451
vn -0.578147 -0.063405 0.813466
vn -0.492715 -0.031301 0.869627
vn -0.420813 -0.027601 0.906728
vn -0.420587 -0.029499 0.906772
vn -0.451911 -0.031101 0.891521
vn -0.451911 -0.031101 0.891521
vn -0.456609 -0.028301 0.889217
vn -0.420813 -0.027601 0.906728
vn -0.433207 -0.032301 0.900715
vn -0.492715 -0.031301 0.869627
vn -0.484827 -0.031302 0.874050
vn -0.484827 -0.031302 0.874050
vn -0.439510 -0.030501 0.897720
vn -0.433207 -0.032301 0.900715
vn -0.456609 -0.028301 0.889217
vn -0.420221 -0.026101 0.907046
vn -0.420813 -0.027601 0.906728
vn -0.433207 -0.032301 0.900715
vn -0.423229 -0.028902 0.905562
vn -0.492715 -0.031301 0.869627
vn -0.420221 -0.026101 0.907046
vn -0.456609 -0.028301 0.889217
vn -0.492715 -0.031301 0.869627
vn -0.492715 -0.031301 0.869627
vn -0.423229 -0.028902 0.905562
vn -0.420221 -0.026101 0.907046
vn -0.420788 -0.022699 0.906875
vn -0.433207 -0.032301 0.900715
vn -0.439510 -0.030501 0.897720
vn -0.439510 -0.030501 0.897720
vn -0.432499 -0.020700 0.901397
vn -0.420788 -0.022699 0.906875
vn -0.422722 -0.023801 0.905947
vn -0.410999 -0.024800 0.911298
vn -0.420788 -0.022699 0.906875
vn -0.420788 -0.022699 0.906875
vn -0.432499 -0.020700 0.901397
vn -0.422722 -0.023801 0.905947
vn -0.411498 -0.024000 0.911095
vn -0.423229 -0.028902 0.905562
vn -0.433207 -0.032301 0.900715
vn -0.433207 -0.032301 0.900715
vn -0.420788 -0.022699 0.906875
vn -0.411498 -0.024000 0.911095
vn -0.410999 -0.024800 0.911298
vn -0.408717 -0.024301 0.912338
vn -0.411498 -0.024000 0.911095
vn -0.411498 -0.024000 0.911095
vn -0.420788 -0.022699 0.906875
vn -0.410999 -0.024800 0.911298
vn -0.409697 -0.024500 0.911893
vn -0.420221 -0.026101 0.907046
vn -0.423229 -0.028902 0.905562
vn -0.423229 -0.028902 0.905562
vn -0.411498 -0.024000 0.911095
vn -0.409697 -0.024500 0.911893
vn -0.408717 -0.024301 0.912338
vn -0.409697 -0.024500 0.911893
vn -0.411498 -0.024000 0.911095
vn -0.411498 -0.024000 0.911095
vn -0.408717 -0.024301 0.912338
vn -0.408717 -0.024301 0.912338
vn -0.409814 -0.024801 0.911832
vn -0.420813 -0.027601 0.906728
vn -0.420221 -0.026101 0.907046
vn -0.420221 -0.026101 0.907046
vn -0.409697 -0.024500 0.911893
vn -0.409814 -0.024801 0.911832
vn -0.409814 -0.024801 0.911832
vn -0.410409 -0.026401 0.911519
vn -0.420587 -0.029499 0.906772
vn -0.420587 -0.029499 0.906772
vn -0.420813 -0.027601 0.906728
vn -0.409814 -0.024801 0.911832
vn -0.408717 -0.024301 0.912338
vn -0.408717 -0.024301 0.912338
vn -0.409814 -0.024801 0.911832
vn -0.409814 -0.024801 0.911832
vn -0.409697 -0.024500 0.911893
vn -0.408717 -0.024301 0.912338
vn -0.409814 -0.024801 0.911832
vn -0.408680 -0.024299 0.912354
vn -0.408717 -0.024301 0.912338
vn -0.408717 -0.024301 0.912338
vn -0.410409 -0.026401 0.911519
vn -0.409814 -0.024801 0.911832
vn 0.432407 0.528008 -0.730911
vn -0.281419 0.958364 0.048403
vn -0.501796 0.864093 -0.039300
vn -0.501796 0.864093 -0.039300
vn 0.093396 0.677070 -0.729968
vn 0.432407 0.528008 -0.730911
vn 0.311006 -0.284206 -0.906919
vn -0.250201 -0.518103 -0.817905
vn -0.802986 -0.576290 -0.151997
vn -0.802986 -0.576290 -0.151997
vn -0.791331 -0.604024 -0.094604
vn 0.311006 -0.284206 -0.906919
vn -0.501796 0.864093 -0.039300
vn -0.594814 0.800819 -0.069902
vn -0.136502 0.659609 -0.739110
vn -0.136502 0.659609 -0.739110
vn 0.093396 0.677070 -0.729968
vn -0.501796 0.864093 -0.039300
vn 0.093396 0.677070 -0.729968
vn -0.136502 0.659609 -0.739110
vn 0.471618 0.025501 -0.881434
vn -0.802986 -0.576290 -0.151997
vn -0.250201 -0.518103 -0.817905
vn -0.237309 -0.406415 -0.882333
vn -0.237309 -0.406415 -0.882333
vn -0.782265 -0.558375 -0.276188
vn -0.802986 -0.576290 -0.151997
vn -0.237309 -0.406415 -0.882333
vn -0.250201 -0.518103 -0.817905
vn 0.481639 0.026402 -0.875972
vn 0.093396 0.677070 -0.729968
vn 0.538405 0.021700 -0.842407
vn 0.432407 0.528008 -0.730911
vn 0.548337 -0.000500 -0.836257
vn -0.250201 -0.518103 -0.817905
vn 0.311006 -0.284206 -0.906919
vn 0.475927 0.024301 -0.879149
vn 0.481639 0.026402 -0.875972
vn 0.548337 -0.000500 -0.836257
vn 0.548337 -0.000500 -0.836257
vn 0.481639 0.026402 -0.875972
vn -0.250201 -0.518103 -0.817905
vn 0.471311 0.020900 -0.881720
vn 0.475927 0.024301 -0.879149
vn 0.548337 -0.000500 -0.836257
vn 0.548337 -0.000500 -0.836257
vn 0.538405 0.021700 -0.842407
vn 0.471311 0.020900 -0.881720
vn 0.538405 0.021700 -0.842407
vn 0.471618 0.025501 -0.881434
vn 0.471311 0.020900 -0.881720
vn 0.538405 0.021700 -0.842407
vn 0.093396 0.677070 -0.729968
vn 0.471618 0.025501 -0.881434
vn 0.432407 0.528008 -0.730911
vn 0.548337 -0.000500 -0.836257
vn 0.311006 -0.284206 -0.906919
vn 0.432407 0.528008 -0.730911
vn 0.538405 0.021700 -0.842407
vn 0.548337 -0.000500 -0.836257
vn -0.136502 0.659609 -0.739110
vn -0.594814 0.800819 -0.069902
vn -0.483694 0.869689 -0.098399
vn -0.483694 0.869689 -0.098399
vn -0.018300 0.663899 -0.747599
vn -0.136502 0.659609 -0.739110
vn -0.483694 0.869689 -0.098399
vn -0.127197 0.989679 0.065999
vn 0.123000 0.800701 -0.586301
vn 0.123000 0.800701 -0.586301
vn -0.018300 0.663899 -0.747599
vn -0.483694 0.869689 -0.098399
vn 0.623618 0.185005 -0.759522
vn 0.452734 0.017901 -0.891466
vn 0.471311 0.020900 -0.881720
vn 0.471311 0.020900 -0.881720
vn 0.471618 0.025501 -0.881434
vn 0.623618 0.185005 -0.759522
vn 0.931767 -0.011100 -0.362887
vn 0.452734 0.017901 -0.891466
vn 0.623618 0.185005 -0.759522
vn 0.623618 0.185005 -0.759522
vn 0.513734 0.766250 -0.385925
vn 0.931767 -0.011100 -0.362887
vn 0.452734 0.017901 -0.891466
vn 0.457319 0.017201 -0.889137
vn 0.475927 0.024301 -0.879149
vn 0.475927 0.024301 -0.879149
vn 0.471311 0.020900 -0.881720
vn 0.452734 0.017901 -0.891466
vn 0.931767 -0.011100 -0.362887
vn 0.844917 -0.350907 -0.403708
vn 0.457319 0.017201 -0.889137
vn 0.457319 0.017201 -0.889137
vn 0.452734 0.017901 -0.891466
vn 0.931767 -0.011100 -0.362887
vn -0.782265 -0.558375 -0.276188
vn -0.237309 -0.406415 -0.882333
vn -0.195008 -0.468019 -0.861934
vn -0.195008 -0.468019 -0.861934
vn -0.720142 -0.641837 -0.263515
vn -0.782265 -0.558375 -0.276188
vn -0.720142 -0.641837 -0.263515
vn -0.195008 -0.468019 -0.861934
vn 0.132997 -0.793481 -0.593886
vn 0.132997 -0.793481 -0.593886
vn 0.036199 -0.998362 -0.044298
vn -0.720142 -0.641837 -0.263515
vn -0.195008 -0.468019 -0.861934
vn -0.237309 -0.406415 -0.882333
vn 0.481639 0.026402 -0.875972
vn 0.481639 0.026402 -0.875972
vn 0.473321 0.021001 -0.880640
vn -0.195008 -0.468019 -0.861934
vn 0.747885 -0.479291 -0.459291
vn 0.132997 -0.793481 -0.593886
vn -0.195008 -0.468019 -0.861934
vn -0.195008 -0.468019 -0.861934
vn 0.473321 0.021001 -0.880640
vn 0.747885 -0.479291 -0.459291
vn 0.457319 0.017201 -0.889137
vn 0.473321 0.021001 -0.880640
vn 0.481639 0.026402 -0.875972
vn 0.481639 0.026402 -0.875972
vn 0.475927 0.024301 -0.879149
vn 0.457319 0.017201 -0.889137
vn 0.747885 -0.479291 -0.459291
vn 0.473321 0.021001 -0.880640
vn 0.457319 0.017201 -0.889137
vn 0.457319 0.017201 -0.889137
vn 0.844917 -0.350907 -0.403708
vn 0.747885 -0.479291 -0.459291
vn 0.623618 0.185005 -0.759522
vn 0.471618 0.025501 -0.881434
vn -0.136502 0.659609 -0.739110
vn -0.136502 0.659609 -0.739110
vn -0.018300 0.663899 -0.747599
vn 0.623618 0.185005 -0.759522
vn 0.623618 0.185005 -0.759522
vn -0.018300 0.663899 -0.747599
vn 0.123000 0.800701 -0.586301
vn 0.123000 0.800701 -0.586301
vn 0.857307 0.435704 -0.274202
vn 0.623618 0.185005 -0.759522
vn 0.123000 0.800701 -0.586301
vn -0.127197 0.989679 0.065999
vn 0.840933 0.476319 0.256810
vn 0.840933 0.476319 0.256810
vn 0.857307 0.435704 -0.274202
vn 0.123000 0.800701 -0.586301
vn 0.543633 0.762947 0.349821
vn 0.521934 0.836655 0.166111
vn 0.513734 0.766250 -0.385925
vn 0.513734 0.766250 -0.385925
vn 0.623618 0.185005 -0.759522
vn 0.543633 0.762947 0.349821
vn 0.840933 0.476319 0.256810
vn 0.543633 0.762947 0.349821
vn 0.623618 0.185005 -0.759522
vn 0.623618 0.185005 -0.759522
vn 0.857307 0.435704 -0.274202
vn 0.840933 0.476319 0.256810
vn 0.036199 -0.998362 -0.044298
vn 0.132997 -0.793481 -0.593886
vn 0.747885 -0.479291 -0.459291
vn 0.747885 -0.479291 -0.459291
vn 0.692230 -0.705530 0.151807
vn 0.036199 -0.998362 -0.044298
vn 0.692230 -0.705530 0.151807
vn 0.747885 -0.479291 -0.459291
vn 0.844917 -0.350907 -0.403708
vn 0.844917 -0.350907 -0.403708
vn 0.855591 -0.473895 0.208298
vn 0.692230 -0.705530 0.151807
vn 0.844917 -0.350907 -0.403708
vn 0.931767 -0.011100 -0.362887
vn 0.980414 -0.034500 0.193903
vn 0.980414 -0.034500 0.193903
vn 0.855591 -0.473895 0.208298
vn 0.844917 -0.350907 -0.403708
vn 0.513734 0.766250 -0.385925
vn 0.521934 0.836655 0.166111
vn 0.980414 -0.034500 0.193903
vn 0.980414 -0.034500 0.193903
vn 0.931767 -0.011100 -0.362887
vn 0.513734 0.766250 -0.385925
s off
g polySurface34
usemtl nemo:nemo_mat
f 1/1/1 2/2/2 3/3/3
f 4/4/4 5/5/5 6/6/6
f 4/4/7 3/3/8 2/2/9
f 2/2/10 5/5/11 4/4/12
f 7/7/13 8/8/14 1/1/15
f 1/1/16 3/3/17 7/7/18
f 9/9/19 4/4/20 6/6/21
f 6/6/22 10/10/23 9/9/24
f 3/3/25 11/11/26 7/7/27
f 9/9/28 12/12/29 4/4/30
f 11/11/31 3/3/32 4/4/33
f 4/4/34 12/12/35 11/11/36
f 13/13/37 9/9/38 10/10/39
f 10/10/40 14/14/41 13/13/42
f 15/15/43 16/16/44 13/13/45
f 13/13/46 14/14/47 15/15/48
f 17/17/49 12/12/50 9/9/51
f 9/9/52 13/13/53 17/17/54
f 16/16/55 18/18/56 17/17/57
f 17/17/58 13/13/59 16/16/60
f 19/19/61 11/11/62 12/12/63
f 12/12/64 17/17/65 19/19/66
f 20/20/67 19/19/68 17/17/69
f 17/17/70 18/18/71 20/20/72
f 21/21/73 7/7/74 11/11/75
f 11/11/76 19/19/77 21/21/78
f 21/21/79 22/22/80 8/8/81
f 8/8/82 7/7/83 21/21/84
f 20/20/85 23/23/86 21/21/87
f 21/21/88 19/19/89 20/20/90
f 21/21/91 24/24/92 25/25/93
f 25/25/94 22/22/95 21/21/96
f 26/26/97 27/27/98 28/28/99
f 28/28/100 29/29/101 26/26/102
f 30/30/103 31/31/104 32/32/105
f 32/32/106 33/33/107 30/30/108
f 28/28/109 34/34/110 35/35/111
f 35/35/112 29/29/113 28/28/114
f 29/29/115 35/35/116 36/36/117
f 32/32/118 31/31/119 37/37/120
f 37/37/121 38/38/122 32/32/123
f 37/37/124 31/31/125 39/39/126
f 29/29/127 40/40/128 26/26/129
f 41/41/130 31/31/131 30/30/132
f 42/42/133 39/39/134 41/41/135
f 41/41/136 39/39/137 31/31/138
f 43/43/139 42/42/140 41/41/141
f 41/41/142 40/40/143 43/43/144
f 40/40/145 36/36/146 43/43/147
f 40/40/148 29/29/149 36/36/150
f 26/26/151 41/41/152 30/30/153
f 26/26/154 40/40/155 41/41/156
f 35/35/157 34/34/158 44/44/159
f 44/44/160 45/45/161 35/35/162
f 44/44/163 46/46/164 47/47/165
f 47/47/166 45/45/167 44/44/168
f 48/48/169 49/49/170 43/43/171
f 43/43/172 36/36/173 48/48/174
f 50/50/175 49/49/176 48/48/177
f 48/48/178 51/51/179 50/50/180
f 49/49/181 52/52/182 42/42/183
f 42/42/184 43/43/185 49/49/186
f 50/50/187 53/53/188 52/52/189
f 52/52/190 49/49/191 50/50/192
f 38/38/193 37/37/194 54/54/195
f 54/54/196 55/55/197 38/38/198
f 55/55/199 54/54/200 56/56/201
f 56/56/202 57/57/203 55/55/204
f 54/54/205 37/37/206 39/39/207
f 39/39/208 58/58/209 54/54/210
f 59/59/211 56/56/212 54/54/213
f 54/54/214 58/58/215 59/59/216
f 52/52/217 58/58/218 39/39/219
f 39/39/220 42/42/221 52/52/222
f 59/59/223 58/58/224 52/52/225
f 52/52/226 53/53/227 59/59/228
f 48/48/229 36/36/230 35/35/231
f 35/35/232 45/45/233 48/48/234
f 48/48/235 45/45/236 47/47/237
f 47/47/238 60/60/239 48/48/240
f 47/47/241 46/46/242 61/61/243
f 61/61/244 60/60/245 47/47/246
f 62/62/247 63/63/248 51/51/249
f 51/51/250 48/48/251 62/62/252
f 61/61/253 62/62/254 48/48/255
f 48/48/256 60/60/257 61/61/258
f 57/57/259 56/56/260 59/59/261
f 59/59/262 64/64/263 57/57/264
f 64/64/265 59/59/266 53/53/267
f 53/53/268 65/65/269 64/64/270
f 53/53/271 50/50/272 66/66/273
f 66/66/274 65/65/275 53/53/276
f 51/51/277 63/63/278 66/66/279
f 66/66/280 50/50/281 51/51/282
