# This file uses centimeters as units for non-parametric coordinates.

mtllib cola.mtl
g default
v -2.241732 98.874493 52.038284
v -2.314613 98.610852 52.051941
v -2.314613 98.657903 51.817753
v -2.314613 100.885793 52.225006
v -2.273583 100.471494 52.110497
v -2.314613 100.839925 51.904862
v -2.314613 98.921498 52.557785
v -2.261008 99.401067 52.241684
v -2.314613 99.282178 52.817509
v -2.252440 99.871968 52.265618
v -2.314613 99.986874 52.804138
v -2.314613 100.749684 52.396885
v -2.314613 100.461148 52.678520
v -2.314613 100.634496 50.614571
v -2.118288 100.260564 50.646805
v -2.007159 99.871907 50.640278
v -2.018952 99.507306 50.636673
v -2.122171 99.171864 50.652756
v -2.314613 98.993275 50.629883
v -2.098149 99.866269 51.192280
v -2.107396 99.496175 51.184609
v -2.189075 100.306775 51.146256
v -2.183807 99.105100 51.170395
v -2.314613 98.877057 51.107666
v -2.314613 100.718503 51.095005
v -2.224420 99.444951 51.749977
v -2.211190 99.844434 51.757778
v -2.248222 100.397572 51.676975
v -2.243136 98.994740 51.638016
v -2.314613 98.744687 51.532231
v -2.314613 100.785413 51.581249
v -2.387494 98.874493 52.038284
v -2.314613 98.657903 51.817753
v -2.314613 98.610852 52.051941
v -2.314613 100.885793 52.225006
v -2.314613 100.839925 51.904862
v -2.355644 100.471494 52.110497
v -2.314613 98.921498 52.557785
v -2.368219 99.401067 52.241684
v -2.314613 99.282178 52.817509
v -2.376787 99.871968 52.265618
v -2.314613 99.986874 52.804138
v -2.314613 100.749684 52.396885
v -2.314613 100.461148 52.678520
v -2.510939 100.260564 50.646805
v -2.314613 100.634496 50.614571
v -2.622067 99.871907 50.640278
v -2.610274 99.507306 50.636673
v -2.507056 99.171864 50.652756
v -2.314613 98.993275 50.629883
v -2.531077 99.866269 51.192280
v -2.521830 99.496175 51.184609
v -2.440151 100.306775 51.146256
v -2.445419 99.105100 51.170395
v -2.314613 98.877057 51.107666
v -2.314613 100.718503 51.095005
v -2.404806 99.444951 51.749977
v -2.418036 99.844434 51.757778
v -2.381004 100.397572 51.676975
v -2.386090 98.994740 51.638016
v -2.314613 98.744687 51.532231
v -2.314613 100.785413 51.581249
vt 1.915520 0.138319
vt 1.945370 0.105990
vt 1.912920 0.097365
vt 1.901320 0.420519
vt 1.909320 0.364713
vt 1.876900 0.413724
vt 1.972990 0.155650
vt 1.932620 0.219046
vt 1.984110 0.209730
vt 1.932960 0.283313
vt 1.991400 0.292534
vt 1.938110 0.397269
vt 1.971300 0.356265
vt 1.770740 0.270755
vt 1.770740 0.220312
vt 1.685910 0.217011
vt 1.688620 0.267619
vt 1.695810 0.321864
vt 1.770740 0.324966
vt 1.770740 0.176594
vt 1.685280 0.174194
vt 1.770740 0.142851
vt 1.686250 0.137586
vt 1.699400 0.361839
vt 1.770740 0.365360
vt 1.863730 0.220227
vt 1.862920 0.275274
vt 1.853050 0.343459
vt 1.857070 0.165302
vt 1.842100 0.125546
vt 1.840730 0.391685
vt 0.915521 0.138319
vt 0.912920 0.097365
vt 0.945368 0.105990
vt 0.901323 0.420519
vt 0.876901 0.413724
vt 0.909317 0.364713
vt 0.972992 0.155650
vt 0.932620 0.219046
vt 0.984113 0.209730
vt 0.932956 0.283313
vt 0.991396 0.292534
vt 0.938110 0.397269
vt 0.971301 0.356265
vt 0.770737 0.270755
vt 0.688619 0.267619
vt 0.685912 0.217011
vt 0.770737 0.220312
vt 0.770737 0.324966
vt 0.695806 0.321864
vt 0.685284 0.174194
vt 0.770737 0.176594
vt 0.686250 0.137586
vt 0.770737 0.142851
vt 0.770737 0.365360
vt 0.699399 0.361839
vt 0.863727 0.220227
vt 0.862917 0.275274
vt 0.853046 0.343459
vt 0.857071 0.165302
vt 0.842097 0.125546
vt 0.840732 0.391685
vn 0.989246 -0.138606 0.046702
vn 0.963584 -0.264196 0.041299
vn 0.964542 -0.254911 -0.068403
vn 0.995478 0.091698 0.024799
vn 0.995819 0.080702 0.042801
vn 0.994685 0.101698 -0.016100
vn 0.963584 -0.264196 0.041299
vn 0.989246 -0.138606 0.046702
vn 0.990057 -0.077197 0.117595
vn 0.996381 -0.024500 0.081398
vn 0.990057 -0.077197 0.117595
vn 0.989246 -0.138606 0.046702
vn 0.995220 -0.031601 0.092402
vn 0.990057 -0.077197 0.117595
vn 0.996381 -0.024500 0.081398
vn 0.995220 -0.031601 0.092402
vn 0.996381 -0.024500 0.081398
vn 0.996242 0.016101 0.085104
vn 0.993657 0.016099 0.111295
vn 0.995220 -0.031601 0.092402
vn 0.996242 0.016101 0.085104
vn 0.994739 0.075903 0.068803
vn 0.995102 0.050800 0.084800
vn 0.995819 0.080702 0.042801
vn 0.995819 0.080702 0.042801
vn 0.995478 0.091698 0.024799
vn 0.994739 0.075903 0.068803
vn 0.978810 0.094801 0.181502
vn 0.979273 -0.118709 0.164112
vn 0.965567 -0.153811 0.209815
vn 0.965567 -0.153811 0.209815
vn 0.974632 0.128704 0.183106
vn 0.978810 0.094801 0.181502
vn 0.974632 0.128704 0.183106
vn 0.922713 0.365905 0.121302
vn 0.960229 0.264208 0.090303
vn 0.960229 0.264208 0.090303
vn 0.978810 0.094801 0.181502
vn 0.974632 0.128704 0.183106
vn 0.979273 -0.118709 0.164112
vn 0.936082 -0.349093 0.043399
vn 0.839302 -0.536901 0.085500
vn 0.839302 -0.536901 0.085500
vn 0.965567 -0.153811 0.209815
vn 0.979273 -0.118709 0.164112
vn 0.936082 -0.349093 0.043399
vn 0.893111 -0.444005 -0.072201
vn 0.695027 -0.718328 -0.030701
vn 0.695027 -0.718328 -0.030701
vn 0.839302 -0.536901 0.085500
vn 0.936082 -0.349093 0.043399
vn 0.960229 0.264208 0.090303
vn 0.922713 0.365905 0.121302
vn 0.881636 0.468619 0.055802
vn 0.881636 0.468619 0.055802
vn 0.964331 0.264409 -0.012400
vn 0.960229 0.264208 0.090303
vn 0.991163 -0.059804 0.118407
vn 0.979273 -0.118709 0.164112
vn 0.978810 0.094801 0.181502
vn 0.978810 0.094801 0.181502
vn 0.991772 0.034099 0.123396
vn 0.991163 -0.059804 0.118407
vn 0.991772 0.034099 0.123396
vn 0.978810 0.094801 0.181502
vn 0.960229 0.264208 0.090303
vn 0.960229 0.264208 0.090303
vn 0.989493 0.135699 0.049900
vn 0.991772 0.034099 0.123396
vn 0.991163 -0.059804 0.118407
vn 0.986684 -0.162597 0.004200
vn 0.936082 -0.349093 0.043399
vn 0.936082 -0.349093 0.043399
vn 0.979273 -0.118709 0.164112
vn 0.991163 -0.059804 0.118407
vn 0.986684 -0.162597 0.004200
vn 0.966584 -0.244796 -0.076099
vn 0.893111 -0.444005 -0.072201
vn 0.893111 -0.444005 -0.072201
vn 0.936082 -0.349093 0.043399
vn 0.986684 -0.162597 0.004200
vn 0.996242 0.016101 0.085104
vn 0.991772 0.034099 0.123396
vn 0.989493 0.135699 0.049900
vn 0.989493 0.135699 0.049900
vn 0.995819 0.080702 0.042801
vn 0.996242 0.016101 0.085104
vn 0.996242 0.016101 0.085104
vn 0.996381 -0.024500 0.081398
vn 0.991163 -0.059804 0.118407
vn 0.991163 -0.059804 0.118407
vn 0.991772 0.034099 0.123396
vn 0.996242 0.016101 0.085104
vn 0.996381 -0.024500 0.081398
vn 0.989246 -0.138606 0.046702
vn 0.986684 -0.162597 0.004200
vn 0.986684 -0.162597 0.004200
vn 0.991163 -0.059804 0.118407
vn 0.996381 -0.024500 0.081398
vn 0.966584 -0.244796 -0.076099
vn 0.986684 -0.162597 0.004200
vn 0.989246 -0.138606 0.046702
vn 0.989246 -0.138606 0.046702
vn 0.964542 -0.254911 -0.068403
vn 0.966584 -0.244796 -0.076099
vn 0.989493 0.135699 0.049900
vn 0.960229 0.264208 0.090303
vn 0.964331 0.264409 -0.012400
vn 0.964331 0.264409 -0.012400
vn 0.988249 0.152608 -0.008700
vn 0.989493 0.135699 0.049900
vn 0.995819 0.080702 0.042801
vn 0.989493 0.135699 0.049900
vn 0.988249 0.152608 -0.008700
vn 0.988249 0.152608 -0.008700
vn 0.994685 0.101698 -0.016100
vn 0.995819 0.080702 0.042801
vn 0.996242 0.016101 0.085104
vn 0.995819 0.080702 0.042801
vn 0.995102 0.050800 0.084800
vn 0.995102 0.050800 0.084800
vn 0.993657 0.016099 0.111295
vn 0.996242 0.016101 0.085104
vn -0.989246 -0.138606 0.046702
vn -0.964542 -0.254911 -0.068403
vn -0.963584 -0.264196 0.041299
vn -0.995478 0.091698 0.024799
vn -0.994685 0.101698 -0.016100
vn -0.995819 0.080702 0.042801
vn -0.963584 -0.264196 0.041299
vn -0.990057 -0.077197 0.117595
vn -0.989246 -0.138606 0.046702
vn -0.996381 -0.024500 0.081398
vn -0.989246 -0.138606 0.046702
vn -0.990057 -0.077197 0.117595
vn -0.995220 -0.031601 0.092402
vn -0.996381 -0.024500 0.081398
vn -0.990057 -0.077197 0.117595
vn -0.995220 -0.031601 0.092402
vn -0.996242 0.016101 0.085104
vn -0.996381 -0.024500 0.081398
vn -0.993657 0.016099 0.111295
vn -0.996242 0.016101 0.085104
vn -0.995220 -0.031601 0.092402
vn -0.994739 0.075903 0.068803
vn -0.995819 0.080702 0.042801
vn -0.995102 0.050800 0.084800
vn -0.995819 0.080702 0.042801
vn -0.994739 0.075903 0.068803
vn -0.995478 0.091698 0.024799
vn -0.978810 0.094801 0.181502
vn -0.974632 0.128704 0.183106
vn -0.965567 -0.153811 0.209815
vn -0.965567 -0.153811 0.209815
vn -0.979273 -0.118709 0.164112
vn -0.978810 0.094801 0.181502
vn -0.974632 0.128704 0.183106
vn -0.978810 0.094801 0.181502
vn -0.960229 0.264208 0.090303
vn -0.960229 0.264208 0.090303
vn -0.922713 0.365905 0.121302
vn -0.974632 0.128704 0.183106
vn -0.979273 -0.118709 0.164112
vn -0.965567 -0.153811 0.209815
vn -0.839302 -0.536901 0.085500
vn -0.839302 -0.536901 0.085500
vn -0.936082 -0.349093 0.043399
vn -0.979273 -0.118709 0.164112
vn -0.936082 -0.349093 0.043399
vn -0.839302 -0.536901 0.085500
vn -0.695027 -0.718328 -0.030701
vn -0.695027 -0.718328 -0.030701
vn -0.893111 -0.444005 -0.072201
vn -0.936082 -0.349093 0.043399
vn -0.960229 0.264208 0.090303
vn -0.964331 0.264409 -0.012400
vn -0.881636 0.468619 0.055802
vn -0.881636 0.468619 0.055802
vn -0.922713 0.365905 0.121302
vn -0.960229 0.264208 0.090303
vn -0.991163 -0.059804 0.118407
vn -0.991772 0.034099 0.123396
vn -0.978810 0.094801 0.181502
vn -0.978810 0.094801 0.181502
vn -0.979273 -0.118709 0.164112
vn -0.991163 -0.059804 0.118407
vn -0.991772 0.034099 0.123396
vn -0.989493 0.135699 0.049900
vn -0.960229 0.264208 0.090303
vn -0.960229 0.264208 0.090303
vn -0.978810 0.094801 0.181502
vn -0.991772 0.034099 0.123396
vn -0.991163 -0.059804 0.118407
vn -0.979273 -0.118709 0.164112
vn -0.936082 -0.349093 0.043399
vn -0.936082 -0.349093 0.043399
vn -0.986684 -0.162597 0.004200
vn -0.991163 -0.059804 0.118407
vn -0.986684 -0.162597 0.004200
vn -0.936082 -0.349093 0.043399
vn -0.893111 -0.444005 -0.072201
vn -0.893111 -0.444005 -0.072201
vn -0.966584 -0.244796 -0.076099
vn -0.986684 -0.162597 0.004200
vn -0.996242 0.016101 0.085104
vn -0.995819 0.080702 0.042801
vn -0.989493 0.135699 0.049900
vn -0.989493 0.135699 0.049900
vn -0.991772 0.034099 0.123396
vn -0.996242 0.016101 0.085104
vn -0.996242 0.016101 0.085104
vn -0.991772 0.034099 0.123396
vn -0.991163 -0.059804 0.118407
vn -0.991163 -0.059804 0.118407
vn -0.996381 -0.024500 0.081398
vn -0.996242 0.016101 0.085104
vn -0.996381 -0.024500 0.081398
vn -0.991163 -0.059804 0.118407
vn -0.986684 -0.162597 0.004200
vn -0.986684 -0.162597 0.004200
vn -0.989246 -0.138606 0.046702
vn -0.996381 -0.024500 0.081398
vn -0.966584 -0.244796 -0.076099
vn -0.964542 -0.254911 -0.068403
vn -0.989246 -0.138606 0.046702
vn -0.989246 -0.138606 0.046702
vn -0.986684 -0.162597 0.004200
vn -0.966584 -0.244796 -0.076099
vn -0.989493 0.135699 0.049900
vn -0.988249 0.152608 -0.008700
vn -0.964331 0.264409 -0.012400
vn -0.964331 0.264409 -0.012400
vn -0.960229 0.264208 0.090303
vn -0.989493 0.135699 0.049900
vn -0.995819 0.080702 0.042801
vn -0.994685 0.101698 -0.016100
vn -0.988249 0.152608 -0.008700
vn -0.988249 0.152608 -0.008700
vn -0.989493 0.135699 0.049900
vn -0.995819 0.080702 0.042801
vn -0.996242 0.016101 0.085104
vn -0.993657 0.016099 0.111295
vn -0.995102 0.050800 0.084800
vn -0.995102 0.050800 0.084800
vn -0.995819 0.080702 0.042801
vn -0.996242 0.016101 0.085104
s off
g polySurface38
usemtl nemo:nemo_mat
f 1/1/1 2/2/2 3/3/3
f 4/4/4 5/5/5 6/6/6
f 2/2/7 1/1/8 7/7/9
f 8/8/10 7/7/11 1/1/12
f 9/9/13 7/7/14 8/8/15
f 9/9/16 8/8/17 10/10/18
f 11/11/19 9/9/20 10/10/21
f 12/12/22 13/13/23 5/5/24
f 5/5/25 4/4/26 12/12/27
f 20/14/28 21/15/29 17/16/30
f 17/16/31 16/17/32 20/14/33
f 16/17/34 15/18/35 22/19/36
f 22/19/37 20/14/38 16/17/39
f 21/15/40 23/20/41 18/21/42
f 18/21/43 17/16/44 21/15/45
f 23/20/46 24/22/47 19/23/48
f 19/23/49 18/21/50 23/20/51
f 22/19/52 15/18/53 14/24/54
f 14/24/55 25/25/56 22/19/57
f 26/26/58 21/15/59 20/14/60
f 20/14/61 27/27/62 26/26/63
f 27/27/64 20/14/65 22/19/66
f 22/19/67 28/28/68 27/27/69
f 26/26/70 29/29/71 23/20/72
f 23/20/73 21/15/74 26/26/75
f 29/29/76 30/30/77 24/22/78
f 24/22/79 23/20/80 29/29/81
f 10/10/82 27/27/83 28/28/84
f 28/28/85 5/5/86 10/10/87
f 10/10/88 8/8/89 26/26/90
f 26/26/91 27/27/92 10/10/93
f 8/8/94 1/1/95 29/29/96
f 29/29/97 26/26/98 8/8/99
f 30/30/100 29/29/101 1/1/102
f 1/1/103 3/3/104 30/30/105
f 28/28/106 22/19/107 25/25/108
f 25/25/109 31/31/110 28/28/111
f 5/5/112 28/28/113 31/31/114
f 31/31/115 6/6/116 5/5/117
f 10/10/118 5/5/119 13/13/120
f 13/13/121 11/11/122 10/10/123
f 32/32/124 33/33/125 34/34/126
f 35/35/127 36/36/128 37/37/129
f 34/34/130 38/38/131 32/32/132
f 39/39/133 32/32/134 38/38/135
f 40/40/136 39/39/137 38/38/138
f 40/40/139 41/41/140 39/39/141
f 42/42/142 41/41/143 40/40/144
f 43/43/145 37/37/146 44/44/147
f 37/37/148 43/43/149 35/35/150
f 51/45/151 47/46/152 48/47/153
f 48/47/154 52/48/155 51/45/156
f 47/46/157 51/45/158 53/49/159
f 53/49/160 45/50/161 47/46/162
f 52/48/163 48/47/164 49/51/165
f 49/51/166 54/52/167 52/48/168
f 54/52/169 49/51/170 50/53/171
f 50/53/172 55/54/173 54/52/174
f 53/49/175 56/55/176 46/56/177
f 46/56/178 45/50/179 53/49/180
f 57/57/181 58/58/182 51/45/183
f 51/45/184 52/48/185 57/57/186
f 58/58/187 59/59/188 53/49/189
f 53/49/190 51/45/191 58/58/192
f 57/57/193 52/48/194 54/52/195
f 54/52/196 60/60/197 57/57/198
f 60/60/199 54/52/200 55/54/201
f 55/54/202 61/61/203 60/60/204
f 41/41/205 37/37/206 59/59/207
f 59/59/208 58/58/209 41/41/210
f 41/41/211 58/58/212 57/57/213
f 57/57/214 39/39/215 41/41/216
f 39/39/217 57/57/218 60/60/219
f 60/60/220 32/32/221 39/39/222
f 61/61/223 33/33/224 32/32/225
f 32/32/226 60/60/227 61/61/228
f 59/59/229 62/62/230 56/55/231
f 56/55/232 53/49/233 59/59/234
f 37/37/235 36/36/236 62/62/237
f 62/62/238 59/59/239 37/37/240
f 41/41/241 42/42/242 44/44/243
f 44/44/244 37/37/245 41/41/246
