# This file uses centimeters as units for non-parametric coordinates.

mtllib glass.mtl
g default
v -29.266826 101.290820 77.266824
v 29.701633 101.290820 77.266824
v -29.266826 119.526866 -36.569388
v 29.701633 119.526868 -36.569388
v -29.266826 101.537692 77.306245
v 29.701633 101.537691 77.306250
v -29.266826 119.773740 -36.529962
v 29.701633 119.773738 -36.529962
v -29.266826 110.408843 20.348721
v 29.701633 110.408844 20.348717
v -29.266826 110.655716 20.388139
v 29.701633 110.655715 20.388143
v 0.217404 101.290820 77.266824
v 0.217404 119.526866 -36.569388
v 0.217404 101.537691 77.306250
v 0.217404 119.773740 -36.529962
v 0.217404 110.408843 20.348719
v 0.217404 110.655715 20.388141
vt 0.000000 0.500165
vt 0.000165 1.000165
vt 0.000000 0.500165
vt 0.999835 -0.000165
vt 0.999835 -0.000165
vt 1.000165 0.999835
vt 0.500165 1.000000
vt 1.000165 0.999835
vt -0.000165 0.000165
vt -0.000165 0.000165
vt 0.000165 1.000165
vt 1.000000 0.499835
vt 0.000000 0.500165
vt 0.999835 -0.000165
vt 0.000000 0.500165
vt 0.999835 -0.000165
vt 1.000165 0.999835
vt 0.500000 0.500000
vt -0.000165 0.000165
vt -0.000165 0.000165
vt 1.000000 0.499835
vt 0.000165 1.000165
vt 0.499835 0.000000
vt 1.000000 0.499835
vt 0.000165 1.000165
vt 0.499835 0.000000
vt 0.000000 0.500165
vt 0.999835 -0.000165
vt 1.000165 0.999835
vt 1.000165 0.999835
vt 0.500165 1.000000
vt 0.500000 0.500000
vt -0.000165 0.000165
vt 1.000000 0.499835
vt 1.000000 0.499835
vt 0.000165 1.000165
vn 0.000000 -0.987410 -0.158179
vn 0.000000 -0.987410 -0.158179
vn 0.000000 -0.987410 -0.158179
vn 0.000000 -0.987410 -0.158179
vn 0.000000 -0.987410 -0.158179
vn 0.000000 -0.987410 -0.158179
vn -0.000000 0.987410 0.158179
vn 0.000000 0.987410 0.158179
vn 0.000000 0.987410 0.158179
vn 0.000000 0.987410 0.158179
vn -0.000000 0.987410 0.158179
vn -0.000000 0.987410 0.158179
vn -0.000000 -0.157701 0.987487
vn -0.000000 -0.157700 0.987487
vn 0.000000 -0.157701 0.987487
vn -0.000000 -0.157700 0.987487
vn -0.000000 -0.157701 0.987487
vn -0.000000 -0.157700 0.987487
vn 1.000000 -0.000000 -0.000000
vn 1.000000 -0.000000 -0.000001
vn 1.000000 -0.000000 -0.000001
vn 1.000000 0.000000 0.000000
vn 1.000000 -0.000000 -0.000001
vn 1.000000 -0.000000 -0.000000
vn -0.000000 0.157701 -0.987487
vn 0.000000 0.157700 -0.987487
vn 0.000000 0.157700 -0.987487
vn 0.000000 0.157700 -0.987487
vn -0.000000 0.157701 -0.987487
vn -0.000000 0.157701 -0.987487
vn -1.000000 0.000000 -0.000000
vn -1.000000 0.000000 -0.000000
vn -1.000000 0.000000 -0.000000
vn -1.000000 0.000000 -0.000000
vn -1.000000 0.000000 -0.000000
vn -1.000000 0.000000 -0.000000
vn 0.000000 -0.987410 -0.158179
vn 0.000000 -0.987410 -0.158179
vn 0.000000 -0.987410 -0.158179
vn 0.000000 -0.987410 -0.158179
vn 0.000000 -0.987410 -0.158179
vn 0.000000 -0.987410 -0.158179
vn 0.000000 0.987410 0.158179
vn -0.000000 0.987410 0.158179
vn 0.000000 0.987410 0.158179
vn 0.000000 0.987410 0.158179
vn -0.000000 0.987410 0.158179
vn -0.000000 0.987410 0.158179
vn 1.000000 -0.000000 -0.000001
vn 1.000000 -0.000000 -0.000000
vn 1.000000 -0.000000 -0.000000
vn 1.000000 -0.000000 -0.000001
vn 1.000000 -0.000000 -0.000000
vn 1.000000 -0.000000 -0.000001
vn -1.000000 0.000000 -0.000000
vn -1.000000 0.000000 -0.000000
vn -1.000000 0.000000 -0.000000
vn -1.000000 0.000000 -0.000000
vn -1.000000 0.000000 -0.000000
vn -1.000000 0.000000 -0.000000
vn 0.000000 -0.987410 -0.158179
vn 0.000000 -0.987410 -0.158179
vn 0.000000 -0.987410 -0.158179
vn 0.000000 -0.987410 -0.158179
vn 0.000000 -0.987410 -0.158179
vn 0.000000 -0.987410 -0.158179
vn -0.000000 0.987410 0.158179
vn 0.000000 0.987410 0.158179
vn 0.000000 0.987410 0.158179
vn 0.000000 0.987410 0.158179
vn -0.000000 0.987410 0.158179
vn -0.000000 0.987410 0.158179
vn -0.000000 -0.157701 0.987487
vn 0.000000 -0.157701 0.987487
vn 0.000000 -0.157701 0.987487
vn 0.000000 -0.157701 0.987487
vn -0.000000 -0.157701 0.987487
vn 0.000000 -0.157701 0.987487
vn 0.000000 0.157700 -0.987487
vn 0.000000 0.157700 -0.987487
vn 0.000000 0.157700 -0.987487
vn 0.000000 0.157700 -0.987487
vn 0.000000 0.157700 -0.987487
vn 0.000000 0.157700 -0.987487
vn 0.000000 -0.987410 -0.158179
vn 0.000000 -0.987410 -0.158179
vn 0.000000 -0.987410 -0.158179
vn 0.000000 -0.987410 -0.158179
vn 0.000000 -0.987410 -0.158179
vn 0.000000 -0.987410 -0.158179
vn 0.000000 0.987410 0.158179
vn -0.000000 0.987410 0.158179
vn -0.000000 0.987410 0.158179
vn -0.000000 0.987410 0.158179
vn 0.000000 0.987410 0.158179
vn 0.000000 0.987410 0.158179
s off
g ARCHMODELS_47_050_54
usemtl lambert22SG
f 1/10/1 9/23/2 13/1/3
f 13/1/4 9/23/5 17/32/6
f 18/18/7 5/25/8 15/15/9
f 5/25/10 18/18/11 11/31/12
f 15/24/13 1/36/14 13/1/15
f 1/36/16 15/24/17 5/29/18
f 6/17/19 10/3/20 12/21/21
f 2/22/22 10/3/23 6/17/24
f 8/30/25 14/27/26 16/12/27
f 14/27/28 8/30/29 4/2/30
f 11/35/31 3/11/32 9/13/33
f 3/11/34 11/35/35 7/6/36
f 9/23/37 3/4/38 17/32/39
f 17/32/40 3/4/41 14/34/42
f 16/12/43 18/18/44 8/16/45
f 8/16/46 18/18/47 12/26/48
f 12/21/49 4/9/50 8/16/51
f 10/3/52 4/9/53 12/21/54
f 5/14/55 9/13/56 1/10/57
f 9/13/58 5/14/59 11/35/60
f 2/22/61 17/32/62 10/7/63
f 17/32/64 2/22/65 13/1/66
f 12/26/67 15/15/68 6/20/69
f 15/15/70 12/26/71 18/18/72
f 15/24/73 2/33/74 6/5/75
f 2/33/76 15/24/77 13/1/78
f 16/12/79 3/19/80 7/28/81
f 3/19/82 16/12/83 14/27/84
f 10/7/85 14/34/86 4/8/87
f 14/34/88 10/7/89 17/32/90
f 16/12/91 11/31/92 18/18/93
f 11/31/94 16/12/95 7/6/96
