# This file uses centimeters as units for non-parametric coordinates.

mtllib tunel.mtl
g default
v 25.847437 100.999933 -4.742504
v 25.847437 100.898724 -4.748375
v 24.874520 100.997794 -4.742628
v 24.923167 101.094049 -4.737045
v 26.771707 101.094049 -4.737045
v 26.820353 100.997794 -4.742628
v 23.002825 103.517124 -4.596482
v 22.853108 103.548399 -4.594668
v 23.300309 104.112673 -4.561935
v 23.427665 104.053185 -4.565386
v 23.996839 96.597604 76.082763
v 23.300309 97.045415 76.108740
v 23.300309 101.733118 -4.699972
v 23.996839 101.285307 -4.725950
v 24.874520 96.310091 76.066084
v 22.853108 97.609690 76.141474
v 22.853108 102.297393 -4.667239
v 25.847437 96.211021 76.060337
v 22.699013 98.235193 76.177759
v 22.699013 102.922896 -4.630953
v 23.002825 97.640965 76.143288
v 23.002825 102.328668 -4.665425
v 22.856434 102.922896 -4.630953
v 22.856434 98.235193 76.177759
v 26.820353 96.310091 76.066084
v 22.853108 98.860696 76.214045
v 23.002825 103.517124 -4.596482
v 23.002825 98.829421 76.212230
v 27.698034 96.597604 76.082763
v 27.698034 101.285307 -4.725950
v 23.300309 99.424970 76.246778
v 27.605504 96.679483 76.087513
v 27.605504 101.367186 -4.721200
v 26.771708 101.094049 -4.737045
v 26.771708 96.406347 76.071668
v 28.838439 102.922896 -4.630953
v 28.995860 102.922896 -4.630953
v 28.841767 102.297393 -4.667239
v 28.692051 102.328668 -4.665425
v 24.923167 96.406347 76.071668
v 25.847437 96.312230 76.066208
v 23.996839 99.872782 76.272756
v 23.996839 104.560484 -4.535957
v 28.394567 97.045415 76.108740
v 28.394567 101.733118 -4.699972
v 26.771707 96.406347 76.071668
v 28.267207 104.053184 -4.565386
v 28.394565 104.112673 -4.561935
v 28.841765 103.548399 -4.594668
v 28.692049 103.517124 -4.596482
v 28.841767 97.609690 76.141474
v 23.427665 99.365482 76.243327
v 23.002825 98.829421 76.212230
v 28.995860 98.235193 76.177759
v 28.692049 98.829421 76.212230
v 28.692049 103.517124 -4.596482
v 28.838439 98.235193 76.177759
v 28.841765 98.860696 76.214045
v 23.427665 101.792607 -4.696521
v 24.089370 101.367187 -4.721200
v 24.089370 101.367187 -4.721200
v 23.002825 102.328668 -4.665425
v 23.427665 101.792607 -4.696521
v 24.923166 101.094049 -4.737045
v 28.394565 99.424970 76.246778
v 27.698034 99.872782 76.272756
v 27.698034 104.560484 -4.535957
v 28.692051 97.640965 76.143288
v 28.692049 98.829421 76.212230
v 28.267207 99.365481 76.243327
v 24.089370 104.478605 -4.540707
v 23.427665 104.053185 -4.565386
v 27.605504 101.367186 -4.721200
v 28.267210 101.792606 -4.696521
v 28.267210 101.792607 -4.696521
v 24.089370 104.478605 -4.540707
v 28.692051 102.328667 -4.665425
v 24.089370 96.679484 76.087513
v 24.089370 96.679484 76.087513
v 23.427665 97.104904 76.112191
v 23.427665 97.104904 76.112191
v 23.002825 97.640965 76.143288
v 24.923166 96.406347 76.071668
v 27.605504 104.478605 -4.540707
v 27.605504 104.478605 -4.540707
v 28.267207 104.053185 -4.565386
v 23.427665 99.365482 76.243327
v 24.089370 99.790902 76.268006
v 28.267210 97.104904 76.112191
v 28.267210 97.104903 76.112191
v 27.605504 96.679483 76.087513
v 24.089370 99.790902 76.268006
v 28.692051 97.640965 76.143288
v 27.605504 99.790902 76.268006
v 27.605504 99.790902 76.268006
v 28.267207 99.365482 76.243327
vt 2.210063 -0.668602
vt 2.210063 -0.660790
vt 2.161779 -0.668437
vt 2.164194 -0.675867
vt 2.255933 -0.675867
vt 2.258347 -0.668437
vt 2.068891 -0.862909
vt 2.061461 -0.865324
vt 2.083654 -0.908881
vt 2.089975 -0.904289
vt 0.083575 -1.168197
vt 0.293532 -1.168197
vt 0.293532 2.167346
vt 0.083575 2.167346
vt -0.126383 -1.168197
vt -0.126383 2.167346
vt 0.503489 -1.168197
vt 0.503489 2.167346
vt -0.336340 -1.168197
vt -0.336340 2.167346
vt 0.713447 -1.168197
vt 0.713447 2.167346
vt 0.503489 -1.168197
vt 0.503489 2.167346
vt 0.713447 2.167346
vt 0.713447 -1.168197
vt -0.546297 -1.168197
vt -0.546297 2.167346
vt 0.923404 -1.168197
vt 0.923404 2.167346
vt 0.923404 2.167346
vt 0.923404 -1.168197
vt -0.756255 -1.168197
vt -0.756255 2.167346
vt 1.133362 -1.168197
vt 1.133362 2.167346
vt -0.756255 -1.168197
vt -0.756255 2.167346
vt -0.546297 2.167346
vt -0.546297 -1.168197
vt 2.358501 -0.817040
vt 2.366313 -0.817040
vt 2.358666 -0.768756
vt 2.351236 -0.771170
vt 2.164194 -0.946228
vt 2.161779 -0.953658
vt 2.210063 -0.961306
vt 2.210063 -0.953493
vt 1.343318 -1.168197
vt 1.343318 2.167346
vt -0.966212 -1.168197
vt -0.966212 2.167346
vt 2.258347 -0.953658
vt 2.255933 -0.946228
vt 2.330152 -0.904289
vt 2.336472 -0.908881
vt 2.358666 -0.865324
vt 2.351236 -0.862909
vt -1.176169 -1.168197
vt -1.176169 2.167346
vt 2.089975 -0.717806
vt 2.083654 -0.713214
vt 2.061461 -0.756772
vt 2.068891 -0.759186
vt 1.962035 -1.168197
vt 2.171991 -1.168197
vt 2.171991 2.167346
vt 1.962035 2.167346
vt 1.752076 -1.168197
vt 1.752076 2.167346
vt 1.962035 2.167346
vt 1.962035 -1.168197
vt 1.752076 -1.168197
vt 1.752076 2.167346
vt 2.118222 -0.690631
vt 2.083654 -0.725198
vt 2.089975 -0.729790
vt 2.122814 -0.696951
vt 2.122814 -0.696951
vt 2.061461 -0.768756
vt 2.068891 -0.771170
vt 2.089975 -0.729790
vt 2.164194 -0.675867
vt 1.542120 -1.168197
vt 1.542120 2.167346
vt 1.332162 -1.168197
vt 1.332162 2.167346
vt 2.053813 -0.817040
vt 2.061626 -0.817040
vt 2.068891 -0.771170
vt 2.351236 -0.850925
vt 2.358666 -0.853339
vt 2.366313 -0.805055
vt 2.358501 -0.805055
vt 2.068891 -0.862909
vt 2.351236 -0.759186
vt 2.358666 -0.756772
vt 2.336472 -0.713214
vt 2.330152 -0.717806
vt 2.118222 -0.943449
vt 2.122814 -0.937128
vt 2.089975 -0.904289
vt 2.336472 -0.725198
vt 2.301905 -0.690631
vt 2.297313 -0.696951
vt 2.330152 -0.729790
vt 2.330152 -0.729790
vt 2.351236 -0.771170
vt 2.083654 -0.896897
vt 2.118222 -0.931464
vt 2.122814 -0.925144
vt 2.122814 -0.925144
vt 2.089975 -0.892305
vt 2.061461 -0.853339
vt 2.089975 -0.892305
vt 2.068891 -0.850925
vt 2.164194 -0.946228
vt 2.053813 -0.805055
vt 2.068891 -0.850925
vt 2.061626 -0.805055
vt 2.351236 -0.862909
vt 2.068891 -0.759186
vt 2.301905 -0.943449
vt 2.297313 -0.937128
vt 2.330152 -0.904289
vt 2.118222 -0.678647
vt 2.089975 -0.717806
vt 2.122814 -0.684967
vt 2.301905 -0.931464
vt 2.336472 -0.896897
vt 2.330152 -0.892305
vt 2.330152 -0.892305
vt 2.297313 -0.925144
vt 2.351236 -0.850925
vt 2.255933 -0.675867
vt 2.297313 -0.696951
vt 0.083575 -1.168197
vt 0.083575 2.167346
vt 0.293532 2.167346
vt 0.293532 2.167346
vt 0.293532 -1.168197
vt 0.293532 -1.168197
vt -0.126383 -1.168197
vt -0.126383 2.167346
vt 0.083575 2.167346
vt 0.083575 -1.168197
vt 0.503489 2.167346
vt 0.503489 -1.168197
vt 2.351236 -0.759186
vt -0.336340 -1.168197
vt -0.336340 2.167346
vt -0.126383 2.167346
vt -0.126383 -1.168197
vt 2.301905 -0.678647
vt 2.297313 -0.684967
vt 2.330152 -0.717806
vt -0.546297 2.167346
vt -0.546297 -1.168197
vt -0.966212 -1.168197
vt -0.966212 2.167346
vt -0.756255 2.167346
vt -0.756255 -1.168197
vt 1.133362 -1.168197
vt 1.133362 2.167346
vt 1.343318 2.167346
vt 1.343318 2.167346
vt 1.343318 -1.168197
vt 1.343318 -1.168197
vt -1.176169 -1.168197
vt -1.176169 2.167346
vt -0.966212 2.167346
vt -0.966212 -1.168197
vt 2.297313 -0.925144
vt 2.255933 -0.946228
vt 2.171991 2.167346
vt 2.171991 2.167346
vt 2.171991 -1.168197
vt 2.171991 -1.168197
vt 1.332162 2.167346
vt 1.332162 -1.168197
vt 1.332162 2.167346
vt 1.542120 2.167346
vt 1.542120 -1.168197
vt 1.332162 -1.168197
vt 0.923404 2.167346
vt 1.133362 2.167346
vt 1.133362 -1.168197
vt 0.923404 -1.168197
vt 1.542120 2.167346
vt 1.752076 2.167346
vt 1.752076 -1.168197
vt 1.542120 -1.168197
vn 0.000001 0.057913 -0.998322
vn 0.000001 0.057913 -0.998322
vn 0.000001 0.057913 -0.998322
vn 0.000001 0.057913 -0.998322
vn 0.000007 0.057913 -0.998322
vn 0.000007 0.057913 -0.998322
vn 0.000000 0.057913 -0.998322
vn 0.000012 0.057913 -0.998322
vn -0.000001 0.057913 -0.998322
vn -0.000000 0.057913 -0.998322
vn -0.423796 -0.904238 -0.052455
vn -0.663317 -0.747083 -0.043338
vn -0.663317 -0.747083 -0.043338
vn -0.423796 -0.904238 -0.052455
vn -0.204812 -0.977159 -0.056685
vn -0.204812 -0.977159 -0.056685
vn -0.892801 -0.449694 -0.026087
vn -0.892801 -0.449694 -0.026087
vn 0.000000 -0.998322 -0.057913
vn 0.000000 -0.998322 -0.057913
vn -1.000000 0.000000 0.000000
vn -1.000000 0.000000 0.000000
vn 0.971063 0.238423 0.013831
vn 0.971063 0.238423 0.013831
vn 1.000000 0.000000 0.000000
vn 1.000000 0.000000 0.000000
vn 0.204811 -0.977159 -0.056685
vn 0.204811 -0.977159 -0.056685
vn -0.892801 0.449695 0.026087
vn -0.892801 0.449695 0.026087
vn 0.971063 -0.238423 -0.013831
vn 0.971063 -0.238423 -0.013831
vn 0.423796 -0.904238 -0.052455
vn 0.423796 -0.904238 -0.052455
vn -0.663316 0.747083 0.043338
vn -0.663316 0.747083 0.043338
vn -0.311777 0.948561 0.055026
vn -0.311777 0.948561 0.055026
vn -0.204811 0.977159 0.056685
vn -0.204811 0.977159 0.056685
vn -0.000019 0.057913 -0.998322
vn -0.000019 0.057913 -0.998322
vn -0.000017 0.057913 -0.998322
vn -0.000018 0.057913 -0.998322
vn -0.000003 -0.057913 0.998322
vn -0.000003 -0.057913 0.998322
vn -0.000001 -0.057913 0.998322
vn -0.000001 -0.057913 0.998322
vn -0.541435 0.839331 0.048690
vn -0.541435 0.839331 0.048690
vn 0.663316 -0.747083 -0.043338
vn 0.663316 -0.747083 -0.043338
vn 0.000004 -0.057913 0.998322
vn 0.000004 -0.057913 0.998322
vn 0.000000 0.057913 -0.998322
vn 0.000000 0.057913 -0.998322
vn -0.000008 0.057913 -0.998322
vn -0.000000 0.057913 -0.998322
vn 0.892802 -0.449694 -0.026087
vn 0.892802 -0.449694 -0.026087
vn 0.000000 -0.057913 0.998322
vn 0.000000 -0.057913 0.998322
vn 0.000008 -0.057913 0.998322
vn 0.000000 -0.057913 0.998322
vn 1.000000 0.000001 0.000000
vn 1.000000 0.000001 0.000000
vn -0.971063 -0.238423 -0.013831
vn -0.971063 -0.238423 -0.013831
vn -1.000000 -0.000002 -0.000000
vn -1.000000 -0.000002 -0.000000
vn 0.892801 0.449695 0.026087
vn 0.892801 0.449695 0.026087
vn 0.000003 0.057913 -0.998322
vn -0.000001 0.057913 -0.998322
vn 0.000003 0.057913 -0.998322
vn 0.000000 0.000000 -0.000000
vn 0.000003 0.057913 -0.998322
vn 0.000005 0.057913 -0.998322
vn -0.000006 0.057913 -0.998322
vn -0.000000 0.000000 -0.000000
vn 0.000003 0.057913 -0.998322
vn 0.663316 0.747083 0.043338
vn 0.663316 0.747083 0.043338
vn 0.541435 0.839331 0.048690
vn 0.541435 0.839331 0.048690
vn 0.000019 0.057913 -0.998322
vn 0.000019 0.057913 -0.998322
vn 0.000000 0.000000 -0.000000
vn -0.000011 -0.057913 0.998322
vn -0.000009 -0.057913 0.998322
vn -0.000023 -0.057913 0.998322
vn -0.000023 -0.057913 0.998322
vn 0.000000 0.000000 -0.000000
vn -0.000000 -0.057913 0.998322
vn -0.000012 -0.057913 0.998322
vn 0.000001 -0.057913 0.998322
vn 0.000001 -0.057913 0.998322
vn -0.000003 0.057913 -0.998322
vn -0.000003 0.057913 -0.998322
vn -0.000000 0.000000 -0.000000
vn -0.000004 0.057913 -0.998322
vn 0.000007 0.057913 -0.998322
vn 0.000003 0.057913 -0.998322
vn 0.000003 0.057913 -0.998322
vn -0.000005 0.057913 -0.998322
vn -0.000010 0.057913 -0.998322
vn 0.000001 -0.057913 0.998322
vn -0.000004 -0.057913 0.998322
vn -0.000003 -0.057913 0.998322
vn -0.000000 -0.000000 0.000000
vn -0.000006 -0.057913 0.998322
vn 0.000015 -0.057913 0.998322
vn 0.000000 -0.000000 0.000000
vn 0.000007 -0.057913 0.998322
vn -0.000003 -0.057913 0.998322
vn 0.000019 -0.057913 0.998322
vn 0.000000 -0.000000 0.000000
vn 0.000019 -0.057913 0.998322
vn -0.000000 0.000000 -0.000000
vn 0.000000 -0.000000 0.000000
vn 0.000000 0.057913 -0.998322
vn 0.000000 0.057913 -0.998322
vn 0.000000 0.057913 -0.998322
vn 0.000000 -0.057913 0.998322
vn 0.000000 -0.000000 0.000000
vn 0.000000 -0.057913 0.998322
vn 0.000004 -0.057913 0.998322
vn 0.000003 -0.057913 0.998322
vn 0.000004 -0.057913 0.998322
vn 0.000000 -0.057913 0.998322
vn 0.000000 -0.057913 0.998322
vn 0.000006 -0.057913 0.998322
vn 0.000012 0.057913 -0.998322
vn 0.000000 0.000000 -0.000000
vn 0.541435 0.839332 0.048690
vn 0.541435 0.839332 0.048690
vn 0.000000 0.000000 0.000000
vn 0.784227 0.619432 0.035933
vn 0.784227 0.619432 0.035933
vn 0.000000 0.000000 0.000000
vn 0.204812 0.977159 0.056685
vn 0.204812 0.977159 0.056685
vn 0.000000 0.000000 0.000000
vn 0.000000 0.000000 0.000000
vn 0.000000 0.000000 0.000000
vn 0.000000 0.000000 0.000000
vn -0.000000 -0.000000 0.000000
vn 0.000000 0.998322 0.057913
vn 0.000000 0.998322 0.057913
vn 0.101473 0.993169 0.057614
vn 0.101473 0.993169 0.057614
vn 0.000003 -0.057913 0.998322
vn 0.000003 -0.057913 0.998322
vn 0.000003 -0.057913 0.998322
vn -0.101473 0.993169 0.057614
vn -0.101473 0.993169 0.057614
vn -0.663316 0.747083 0.043338
vn -0.663316 0.747083 0.043338
vn -0.000000 0.000000 0.000000
vn -0.000000 0.000000 0.000000
vn 0.541435 -0.839332 -0.048690
vn 0.541435 -0.839332 -0.048690
vn 0.000000 -0.000000 -0.000000
vn 0.000000 -0.000000 -0.000000
vn 0.000000 -0.000000 -0.000000
vn 0.000000 -0.000000 -0.000000
vn -0.892802 0.449694 0.026087
vn -0.892802 0.449694 0.026087
vn -0.784226 0.619434 0.035933
vn -0.784226 0.619434 0.035933
vn 0.000000 -0.000000 0.000000
vn 0.000009 -0.057913 0.998322
vn -0.971064 0.238418 0.013831
vn -0.971064 0.238418 0.013831
vn -0.000000 -0.000000 -0.000000
vn -0.000000 -0.000000 -0.000000
vn -0.000000 -0.000000 -0.000000
vn -0.663317 -0.747083 -0.043338
vn -0.663317 -0.747083 -0.043338
vn -0.000000 -0.000000 -0.000000
vn 0.000000 -0.000000 -0.000000
vn 0.000000 -0.000000 -0.000000
vn 0.000000 -0.000000 -0.000000
vn 0.000000 -0.000000 -0.000000
vn -0.784226 -0.619434 -0.035933
vn -0.000000 -0.000000 -0.000000
vn -0.000000 -0.000000 -0.000000
vn -0.784226 -0.619434 -0.035933
s 1
g polySurface30
usemtl lambert18SG
f 1/1/1 2/2/2 3/3/3 4/4/4
f 5/5/5 6/6/6 2/2/2 1/1/1
f 7/7/7 8/8/8 9/9/9 10/10/10
s 3
f 11/11/11 12/12/12 13/13/13 14/14/14
f 15/15/15 11/11/11 14/14/14 3/16/16
f 12/12/12 16/17/17 17/18/18 13/13/13
f 18/19/19 15/15/15 3/16/16 2/20/20
f 16/17/17 19/21/21 20/22/22 17/18/18
s 4
f 21/23/23 22/24/24 23/25/25 24/26/26
s 3
f 25/27/27 18/19/19 2/20/20 6/28/28
f 19/21/21 26/29/29 8/30/30 20/22/22
s 4
f 24/26/26 23/25/25 27/31/31 28/32/32
s 3
f 29/33/33 25/27/27 6/28/28 30/34/34
f 26/29/29 31/35/35 9/36/36 8/30/30
s 4
f 32/37/37 33/38/38 34/39/39 35/40/40
s 1
f 36/41/41 37/42/42 38/43/43 39/44/44
s 7
f 40/45/45 15/46/46 18/47/47 41/48/48
s 3
f 31/35/35 42/49/49 43/50/50 9/36/36
f 44/51/51 29/33/33 30/34/34 45/52/52
s 7
f 41/48/48 18/47/47 25/53/53 46/54/54
s 1
f 47/55/55 48/56/56 49/57/57 50/58/58
s 3
f 51/59/59 44/51/51 45/52/52 38/60/60
s 7
f 52/61/61 31/62/62 26/63/63 53/64/64
s 3
f 54/65/65 51/66/59 38/67/60 37/68/66
s 4
f 55/69/67 56/70/68 36/71/69 57/72/70
s 3
f 58/73/71 54/65/65 37/68/66 49/74/72
s 1
f 14/75/73 13/76/74 59/77/75 60/78/76 61/79/77
f 13/76/74 17/80/78 62/81/79 63/82/80 59/77/75
f 3/3/3 14/75/73 61/79/77 64/83/81 4/4/4
s 3
f 65/84/82 58/73/71 49/74/72 48/85/83
f 66/86/84 65/84/82 48/85/83 67/87/85
s 1
f 17/80/78 20/88/86 23/89/87 22/90/88 62/81/79
s 7
f 68/91/89 51/92/90 54/93/91 57/94/92
s 1
f 20/88/86 8/8/8 7/7/7 27/95/93 23/89/87
s 7
f 69/96/94 58/97/95 65/98/96 70/99/97
s 1
f 9/9/9 43/100/98 71/101/99 72/102/100 10/10/10
f 45/103/101 30/104/102 73/105/103 74/106/104 75/107/105
f 38/43/43 45/103/101 75/107/105 77/108/106 39/44/44
s 7
f 12/109/107 11/110/108 78/111/109 79/112/110 80/113/111
f 16/114/112 12/109/107 80/113/111 81/115/113 82/116/114
f 11/110/108 15/46/46 40/45/45 83/117/115 78/111/109
f 19/118/116 16/114/112 82/116/114 21/119/117 24/120/118
s 1
f 49/57/57 37/42/42 36/41/41 56/121/119 50/58/58
s 7
f 26/63/63 19/118/116 24/120/118 28/122/120 53/64/64
s 1
f 67/123/121 48/56/56 47/55/55 86/125/122 84/124/123
s 7
f 42/126/124 31/62/62 52/61/61 87/127/125 88/128/126
f 29/129/127 44/130/128 89/131/129 90/132/130 91/133/131
f 44/130/128 51/92/90 68/91/89 93/134/132 89/131/129
s 1
f 30/104/102 6/6/6 5/5/5 34/135/133 33/136/134 73/105/103
s 4
f 79/137/135 60/138/136 59/139/137 63/140/138 81/141/139 80/142/140
f 83/143/141 64/144/142 61/145/143 60/138/136 79/137/135 78/146/144
f 81/141/139 63/140/138 62/147/145 22/24/24 21/23/23 82/148/146
s 7
f 54/93/91 58/97/95 69/96/94 55/149/147 57/94/92
s 4
f 41/150/148 1/151/149 4/152/150 64/144/142 83/143/141 40/153/151
s 7
f 65/98/96 66/154/152 95/155/153 96/156/154 70/99/97
s 4
f 35/40/40 34/39/39 5/157/155 1/151/149 41/150/148 46/158/156
f 90/159/157 74/160/158 73/161/159 33/38/38 32/37/37 91/162/160
f 87/163/161 72/164/162 71/165/163 76/166/164 92/167/165 88/168/166
f 93/169/167 77/170/168 75/171/169 74/160/158 90/159/157 89/172/170
s 7
f 25/53/53 29/129/127 91/133/131 32/173/171 35/174/172 46/54/54
s 4
f 57/72/70 36/71/69 39/175/173 77/176/168 93/177/167 68/178/174
f 94/180/175 85/179/176 84/181/177 86/182/178 96/183/179 95/184/180
f 28/32/32 27/31/31 7/185/181 10/186/182 72/164/162 87/163/161 52/187/183 53/188/184
f 96/183/179 86/182/178 47/189/185 50/190/186 56/70/68 55/69/67 69/191/187 70/192/188
